# AST/ASF file generated using VICON BodyLanguage
# -----------------------------------------------
:version 1.10
:name VICON
:units
  mass 1.0
  length 0.45
  angle deg
:documentation
   .ast/.asf automatically generated from VICON data using
   VICON BodyBuilder and BodyLanguage model FoxedUp or BRILLIANT.MOD
:root
   order TX TY TZ RX RY RZ
   axis XYZ
   position 0 0 0  
   orientation 0 0 0 
:bonedata
  begin
     id 1 
     name lhipjoint
     direction 0.577973 -0.728611 0.367523 
     length 2.48544 
     axis 0 0 0  XYZ
  end
  begin
     id 2 
     name lfemur
     direction 0.34202 -0.939693 0  
     length 7.1921  
     axis 0 0 20  XYZ
    dof rx ry rz
    limits (-160.0 20.0)
           (-70.0 70.0)
           (-60.0 70.0)
  end
  begin
     id 3 
     name ltibia
     direction 0.34202 -0.939693 0   
     length 7.71059   
     axis 0 0 20   XYZ
    dof rx
    limits (-10.0 170.0)
  end
  begin
     id 4 
     name lfoot
     direction 0.089538 -0.246004 0.965124   
     length 2.19909   
     axis -90 7.62852e-016 20   XYZ
    dof rx rz
    limits (-45.0 90.0)
           (-70.0 20.0)
  end
  begin
     id 5 
     name ltoes
     direction 1.53544e-011 -4.21829e-011 1   
     length 1.10116   
     axis -90 7.62852e-016 20   XYZ
    dof rx
    limits (-90.0 20.0)
  end
  begin
     id 6 
     name rhipjoint
     direction -0.554414 -0.743062 0.374812   
     length 2.4371  
     axis 0 0 0  XYZ 
  end
  begin
     id 7 
     name rfemur
     direction -0.34202 -0.939693 0   
     length 7.47254   
     axis 0 0 -20   XYZ
    dof rx ry rz
    limits (-160.0 20.0)
           (-70.0 70.0)
           (-70.0 60.0)
  end
  begin
     id 8 
     name rtibia
     direction -0.34202 -0.939693 0   
     length 7.65855   
     axis 0 0 -20   XYZ
    dof rx
    limits (-10.0 170.0)
 end
 begin
     id 9 
     name rfoot
     direction -0.133779 -0.367555 0.92033   
     length 2.43006  
     axis -90 -7.62852e-016 -20   XYZ
    dof rx rz
    limits (-45.0 90.0)
           (-20.0 70.0)
  end
  begin
     id 10 
     name rtoes
     direction -1.53563e-011 -4.21889e-011 1   
     length 1.19625   
     axis -90 -7.62852e-016 -20   XYZ
    dof rx
    limits (-90.0 20.0)
  end
  begin
     id 11 
     name lowerback
     direction 0.0249066 0.998043 -0.0573585   
     length 2.08485   
     axis 0 0 0   XYZ
    dof rx ry rz
    limits (-20.0 45.0)
           (-30.0 30.0)
           (-30.0 30.0)
  end
  begin
     id 12 
     name upperback
     direction 0.0237884 0.999673 0.00943178   
     length 2.08515   
     axis 0 0 0   XYZ
    dof rx ry rz
    limits (-20.0 45.0)
           (-30.0 30.0)
           (-30.0 30.0)
  end
  begin
     id 13 
     name thorax
     direction 0.0106671 0.999301 0.0358174   
     length 2.09037   
     axis 0 0 0   XYZ
    dof rx ry rz
    limits (-20.0 45.0)
           (-30.0 30.0)
           (-30.0 30.0)
  end
  begin
     id 14 
     name lowerneck
     direction -0.0580016 0.987052 0.149546   
     length 1.84454   
     axis 0 0 0   XYZ
    dof rx ry rz
    limits (-20.0 45.0)
           (-30.0 30.0)
           (-30.0 30.0)
  end
  begin
     id 15 
     name upperneck
     direction 0.079456 0.981963 -0.171567   
     length 1.88141   
     axis 0 0 0   XYZ
    dof rx ry rz
    limits (-20.0 45.0)
           (-30.0 30.0)
           (-30.0 30.0)
  end
  begin
     id 16
     name head
     direction 0.0262167 0.9967 -0.0768276  
     length 1.89541  
     axis 0 0 0   XYZ
    dof rx ry rz
    limits (-20.0 45.0)
           (-30.0 30.0)
           (-30.0 30.0)
  end
  begin
     id 17 
     name lclavicle
     direction 0.946135 0.322134 -0.0325326  
     length 3.949  
     axis 0 0 0   XYZ
    dof ry rz
    limits (-20.0 10.0)
           (0.0 20.0)
  end
  begin
     id 18 
     name lhumerus
     direction 1 -4.48964e-011 1.94005e-028   
     length 5.10995   
     axis 180 -30 -90   XYZ
    dof rx ry rz
    limits (-60.0 90.0)
           (-90.0 90.0)
           (-90.0 90.0)
  end
  begin
     id 19
     name lradius
     direction 1 -4.48976e-011 2.87852e-027   
     length 3.21207   
     axis 180 -30 -90   XYZ
    dof rx
    limits (-10.0 170.0)
  end
  begin
     id 20
     name lwrist
     direction 1 -4.48963e-011 1.9975e-027   
     length 1.60604   
     axis 2.96054e-016 90 90   XYZ
    dof ry
    limits (-180.0 0.0)
 end
  begin
     id 21 
     name lhand
     direction 1 -4.48919e-011 4.00227e-027   
     length 0.63349   
     axis -2.5488e-015 90 90   XYZ
    dof rx rz
    limits (-90.0 90.0)
           (-45.0 45.0)
  end
  begin
     id 22 
     name lfingers
     direction 1 -4.49037e-011 7.9652e-027   
     length 0.510736   
     axis -5.0975e-015 90 90   XYZ
    dof rx
    limits (0.0 90.0)
  end
  begin
     id 23
     name lthumb
     direction 0.707107 -6.34922e-011 0.707107   
     length 0.733318   
     axis -90 45 -4.48553e-014   XYZ
    dof rx rz
    limits (-45.0 45.0)
           (-45.0 45.0)
  end
  begin
     id 24 
     name rclavicle
     direction -0.940085 0.328911 -0.0897654   
     length 3.93848  
     axis 0 0 0   XYZ 
    dof ry rz
    limits (-10.0 20.0)
           (-20.0 0.0)
  end
  begin
     id 25 
     name rhumerus
     direction -1 -4.48958e-011 3.02044e-027  
     length 5.25109   
     axis 180 30 90   XYZ
    dof rx ry rz
    limits (-90.0 60.0)
           (-90.0 90.0)
           (-90.0 90.0)
  end
  begin
     id 26 
     name rradius
     direction -1 -4.4897e-011 9.78352e-028   
     length 3.28364   
     axis 180 30 90   XYZ
    dof rx
    limits (-10.0 170.0)
  end
  begin
     id 27 
     name rwrist
     direction -1 -4.48943e-011 1.99918e-027   
     length 1.64182   
     axis 2.96054e-016 -90 -90   XYZ
    dof ry
    limits (-180.0 0.0)
  end
  begin
     id 28
     name rhand
     direction -1 -4.49024e-011 3.98478e-027   
     length 0.599745   
     axis -2.5488e-015 -90 -90   XYZ
    dof rx rz
    limits (-90.0 90.0)
           (-45.0 45.0)
  end
  begin
     id 29
     name rfingers
     direction -1 -4.48914e-011 8.00621e-027   
     length 0.48353   
     axis -5.0975e-015 -90 -90   XYZ
    dof rx
    limits (0.0 90.0)
  end
  begin
     id 30
     name rthumb
     direction -0.707107 -6.34992e-011 0.707107   
     length 0.694255   
     axis -90 -45 4.48553e-014   XYZ
    dof rx rz
    limits (-45.0 45.0)
           (-45.0 45.0)
  end
:hierarchy
  begin
    root lhipjoint rhipjoint lowerback
    lhipjoint lfemur
    lfemur ltibia
    ltibia lfoot
    lfoot ltoes
    rhipjoint rfemur
    rfemur rtibia
    rtibia rfoot
    rfoot rtoes
    lowerback upperback
    upperback thorax
    thorax lowerneck lclavicle rclavicle
    lowerneck upperneck
    upperneck head
    lclavicle lhumerus
    lhumerus lradius
    lradius lwrist
    lwrist lhand lthumb
    lhand lfingers
    rclavicle rhumerus
    rhumerus rradius
    rradius rwrist
    rwrist rhand rthumb
    rhand rfingers
  end

#!OML:ASF E:\CV Data\Top Level 1\Subject 1\Session 1\player.ASF
:FULLY-SPECIFIED
:DEGREES
279
root 7.98024 17.8632 -11.5042 11.1727 -19.6228 -0.920901
lowerback 2.53516 2.91115 -0.575326
upperback -2.70238 3.91791 1.39512
thorax -4.3439 1.99023 1.51152
lowerneck -18.8208 -3.88985 -10.0469
upperneck 18.0147 -4.05606 7.09817
head 9.11739 -1.83134 3.55829
rclavicle -1.67476e-014 0
rhumerus -25.6428 3.8862 -90.9462
rradius 50.2372
rwrist -33.0405
rhand -32.1942 -5.2186
rfingers 7.12502
rthumb -5.43623 -35.1289
lclavicle -1.67476e-014 0
lhumerus -35.6205 1.82531 81.7109
lradius 46.145
lwrist 10.017
lhand -17.4778 12.2858
lfingers 7.12502
lthumb 8.77429 42.0834
rfemur -6.77696 -1.40426 17.497
rtibia 17.1732
rfoot -17.2439 -19.7595
rtoes 0.265183
lfemur -21.9358 0.426133 -18.2163
ltibia 18.3553
lfoot -3.16029 -1.39342
ltoes 0.148401
280
root 7.97393 17.863 -11.5033 11.126 -19.703 -0.917406
lowerback 2.50369 2.92728 -0.574362
upperback -2.69915 3.93908 1.38752
thorax -4.3228 2.00057 1.50357
lowerneck -18.8679 -3.85529 -9.99891
upperneck 18.1252 -4.01179 7.05187
head 9.1577 -1.81247 3.54174
rclavicle 4.79071e-014 -8.74653e-015
rhumerus -25.6007 4.05907 -90.977
rradius 50.4295
rwrist -32.8834
rhand -32.1844 -5.07224
rfingers 7.12502
rthumb -5.42682 -34.9828
lclavicle 4.79071e-014 -8.74653e-015
lhumerus -35.5328 1.55251 81.9387
lradius 46.4278
lwrist 10.0399
lhand -17.4722 12.3769
lfingers 7.12502
lthumb 8.77966 42.1743
rfemur -6.72499 -1.34433 17.4988
rtibia 17.1659
rfoot -17.2448 -19.7417
rtoes 0.256345
lfemur -21.861 0.450997 -18.2044
ltibia 18.3531
lfoot -3.16331 -1.32258
ltoes 0.047161
281
root 7.96764 17.8629 -11.5019 11.075 -19.781 -0.911341
lowerback 2.47119 2.94747 -0.572473
upperback -2.69056 3.96549 1.3758
thorax -4.29534 2.01338 1.49076
lowerneck -18.9255 -3.82719 -9.9514
upperneck 18.2381 -3.97624 7.00968
head 9.20175 -1.79712 3.5255
rclavicle 1.36167e-014 2.78299e-015
rhumerus -25.5495 4.23416 -91.0132
rradius 50.6262
rwrist -32.7435
rhand -32.0756 -4.9136
rfingers 7.12502
rthumb -5.32175 -34.8268
lclavicle 1.36167e-014 2.78299e-015
lhumerus -35.439 1.2856 82.1652
lradius 46.7072
lwrist 10.0445
lhand -17.4492 12.4439
lfingers 7.12502
lthumb 8.80185 42.2404
rfemur -6.66276 -1.28849 17.4974
rtibia 17.1492
rfoot -17.2391 -19.7253
rtoes 0.235162
lfemur -21.7801 0.479683 -18.1977
ltibia 18.349
lfoot -3.16977 -1.25664
ltoes -0.0640272
282
root 7.9614 17.8627 -11.4999 11.0203 -19.8518 -0.903235
lowerback 2.43486 2.96778 -0.566928
upperback -2.67988 3.99213 1.3623
thorax -4.26316 2.02614 1.47439
lowerneck -18.9767 -3.80269 -9.90864
upperneck 18.3471 -3.94537 6.97018
head 9.24401 -1.7841 3.51033
rclavicle -4.56211e-014 -2.22639e-014
rhumerus -25.4988 4.42053 -91.0553
rradius 50.829
rwrist -32.6212
rhand -31.9126 -4.74261
rfingers 7.12502
rthumb -5.16437 -34.6597
lclavicle -4.56211e-014 -2.22639e-014
lhumerus -35.3504 1.02896 82.391
lradius 46.9916
lwrist 10.0458
lhand -17.4268 12.5116
lfingers 7.12502
lthumb 8.8235 42.3072
rfemur -6.58944 -1.2364 17.494
rtibia 17.1236
rfoot -17.2311 -19.7128
rtoes 0.213451
lfemur -21.693 0.499961 -18.193
ltibia 18.3416
lfoot -3.17671 -1.18764
ltoes -0.170153
283
root 7.95528 17.8626 -11.4969 10.9597 -19.9135 -0.900945
lowerback 2.40352 2.98324 -0.553439
upperback -2.6744 4.01286 1.35388
thorax -4.23882 2.03585 1.45882
lowerneck -18.9969 -3.77414 -9.88134
upperneck 18.4554 -3.90919 6.93799
head 9.28054 -1.76949 3.50116
rclavicle 3.72721e-015 -1.35174e-014
rhumerus -25.4658 4.63982 -91.1092
rradius 51.0441
rwrist -32.5479
rhand -31.8359 -4.58256
rfingers 7.12502
rthumb -5.09026 -34.5014
lclavicle 3.72721e-015 -1.35174e-014
lhumerus -35.2911 0.791599 82.617
lradius 47.286
lwrist 10.0531
lhand -17.3618 12.5922
lfingers 7.12502
lthumb 8.88619 42.385
rfemur -6.49678 -1.18925 17.4971
rtibia 17.087
rfoot -17.2197 -19.7039
rtoes 0.184435
lfemur -21.5924 0.483362 -18.1759
ltibia 18.3327
lfoot -3.18085 -1.08823
ltoes -0.273846
284
root 7.94896 17.8625 -11.4939 10.899 -19.9638 -0.897508
lowerback 2.37423 2.99468 -0.543824
upperback -2.68224 4.02846 1.35175
thorax -4.23005 2.04332 1.45167
lowerneck -18.9675 -3.74127 -9.86832
upperneck 18.5511 -3.86695 6.90415
head 9.30353 -1.75408 3.49465
rclavicle 5.48646e-014 -6.36111e-015
rhumerus -25.4686 4.89203 -91.1667
rradius 51.2736
rwrist -32.5059
rhand -31.8355 -4.43458
rfingers 7.12502
rthumb -5.08989 -34.3534
lclavicle 5.48646e-014 -6.36111e-015
lhumerus -35.2685 0.57092 82.8477
lradius 47.5851
lwrist 10.0649
lhand -17.2795 12.6412
lfingers 7.12502
lthumb 8.96563 42.4307
rfemur -6.39718 -1.14357 17.502
rtibia 17.042
rfoot -17.2081 -19.7031
rtoes 0.169054
lfemur -21.4931 0.470512 -18.1605
ltibia 18.3239
lfoot -3.18788 -1.00386
ltoes -0.376975
285
root 7.94255 17.8624 -11.4903 10.8372 -20.0088 -0.896031
lowerback 2.3446 3.00659 -0.533023
upperback -2.69622 4.04494 1.35327
thorax -4.22769 2.0513 1.44741
lowerneck -18.9131 -3.70844 -9.86538
upperneck 18.6409 -3.82417 6.87087
head 9.32018 -1.73951 3.49009
rclavicle -1.4064e-014 -5.1684e-015
rhumerus -25.4921 5.16406 -91.2259
rradius 51.5137
rwrist -32.4746
rhand -31.8975 -4.31464
rfingers 7.12502
rthumb -5.14977 -34.2321
lclavicle -1.4064e-014 -5.1684e-015
lhumerus -35.2685 0.35325 83.0856
lradius 47.8855
lwrist 10.0964
lhand -17.1832 12.6546
lfingers 7.12502
lthumb 9.05852 42.4401
rfemur -6.2905 -1.09833 17.5096
rtibia 16.993
rfoot -17.1987 -19.7052
rtoes 0.160813
lfemur -21.3906 0.45169 -18.1425
ltibia 18.317
lfoot -3.19706 -0.917523
ltoes -0.474461
